<svg width="61" height="96" viewBox="0 0 61 96" fill="none" xmlns="http://www.w3.org/2000/svg">
<rect x="-303.5" y="-86.5" width="669" height="282" rx="1.5" stroke="white" stroke-opacity="0.1"/>
<path d="M-202 58V1.36H-199.12V58H-202ZM-196.24 58V1.36H-187.6V58H-196.24ZM-184.72 58V1.36H-181.84V58H-184.72ZM-178.96 58V1.36H-176.08V58H-178.96ZM-167.44 58V1.36H-158.8V58H-167.44ZM-185.488 66.352H-182.608V66.64C-182.736 66.768 -182.832 66.928 -182.896 67.12C-182.896 67.248 -182.896 67.536 -182.896 67.984V86.512H-172.24V88.624H-185.488V66.352ZM-131.875 58V1.36H-123.235V58H-131.875ZM-120.355 58V1.36H-117.475V58H-120.355ZM-114.595 58V1.36H-105.955V58H-114.595ZM-103.075 58V1.36H-100.195V58H-103.075ZM-91.555 58V1.36H-88.675V58H-91.555ZM-108.835 89.008C-111.395 89.008 -113.347 88.016 -114.691 86.032C-116.099 84.048 -116.803 81.232 -116.803 77.584C-116.803 74.064 -116.099 71.28 -114.691 69.232C-113.283 67.248 -111.331 66.256 -108.835 66.256C-106.339 66.256 -104.387 67.248 -102.979 69.232C-101.571 71.28 -100.867 74.064 -100.867 77.584C-100.867 81.232 -101.571 84.048 -102.979 86.032C-104.323 88.016 -106.275 89.008 -108.835 89.008ZM-108.835 86.8C-107.107 86.8 -105.795 86.032 -104.899 84.496C-103.939 82.896 -103.459 80.592 -103.459 77.584C-103.459 74.768 -103.939 72.528 -104.899 70.864C-105.859 69.264 -107.171 68.464 -108.835 68.464C-110.499 68.464 -111.811 69.264 -112.771 70.864C-113.731 72.528 -114.211 74.768 -114.211 77.584C-114.211 80.592 -113.763 82.896 -112.867 84.496C-111.907 86.032 -110.563 86.8 -108.835 86.8ZM-61.75 58V1.36H-53.11V58H-61.75ZM-50.23 58V1.36H-47.35V58H-50.23ZM-44.47 58V1.36H-41.59V58H-44.47ZM-32.95 58V1.36H-30.07V58H-32.95ZM-27.19 58V1.36H-18.55V58H-27.19ZM-35.158 82.096H-42.358L-44.566 88.624H-47.062L-38.902 65.968H-38.614L-30.358 88.624H-32.95L-35.158 82.096ZM-35.83 80.176L-38.71 71.728L-41.686 80.176H-35.83ZM8.375 58V1.36H11.255V58H8.375ZM14.135 58V1.36H17.015V58H14.135ZM19.895 58V1.36H28.535V58H19.895ZM37.175 58V1.36H40.055V58H37.175ZM42.935 58V1.36H51.575V58H42.935ZM24.407 66.352H29.591C31.447 66.352 32.887 66.608 33.911 67.12C34.999 67.632 35.927 68.4 36.695 69.424C38.167 71.344 38.903 74.064 38.903 77.584C38.775 81.232 37.943 83.984 36.407 85.84C34.871 87.76 32.471 88.688 29.207 88.624H24.407V66.352ZM29.015 86.704C33.943 86.704 36.407 83.728 36.407 77.776C36.407 74.768 35.863 72.464 34.775 70.864C33.623 69.264 31.831 68.464 29.399 68.464H26.807V86.704H29.015ZM78.5 58V1.36H81.38V58H78.5ZM84.26 58V1.36H92.9V58H84.26ZM95.78 58V1.36H98.66V58H95.78ZM107.3 58V1.36H115.94V58H107.3ZM118.82 58V1.36H121.7V58H118.82ZM95.492 86.512H99.908V68.464H95.78V66.352H106.82V68.464H102.404V86.512H107.012V88.624H95.492V86.512ZM148.625 58V1.36H151.505V58H148.625ZM154.385 58V1.36H157.265V58H154.385ZM160.145 58V1.36H168.785V58H160.145ZM171.665 58V1.36H174.545V58H171.665ZM183.185 58V1.36H191.825V58H183.185ZM164.561 66.352H166.961L176.273 82.864V66.352H179.057V66.64C178.865 66.768 178.769 66.928 178.769 67.12C178.705 67.248 178.673 67.536 178.673 67.984V88.624H176.753L166.865 71.152V88.624H164.561V66.352ZM218.75 58V1.36H221.63V58H218.75ZM224.51 58V1.36H227.39V58H224.51ZM230.27 58V1.36H233.15V58H230.27ZM241.79 58V1.36H250.43V58H241.79ZM253.31 58V1.36H261.95V58H253.31ZM242.75 89.008C240.958 89.008 239.422 88.528 238.142 87.568C236.862 86.672 235.87 85.36 235.166 83.632C234.462 81.968 234.11 80.016 234.11 77.776C234.11 74.832 234.558 72.496 235.454 70.768C236.35 69.04 237.438 67.824 238.718 67.12C239.998 66.48 241.278 66.16 242.558 66.16C243.902 66.16 245.182 66.512 246.398 67.216C247.678 67.856 248.606 68.752 249.182 69.904L247.454 71.248L247.166 71.536L247.07 71.344C247.07 71.152 247.038 70.96 246.974 70.768C246.846 70.64 246.654 70.416 246.398 70.096C245.822 69.456 245.246 69.008 244.67 68.752C244.094 68.496 243.39 68.368 242.558 68.368C240.83 68.368 239.39 69.04 238.238 70.384C237.15 71.792 236.606 74.064 236.606 77.2C236.606 80.272 237.15 82.64 238.238 84.304C239.326 85.968 240.83 86.8 242.75 86.8C243.454 86.8 244.19 86.672 244.958 86.416C245.79 86.224 246.462 85.904 246.974 85.456V80.176H242.942V77.968H249.278V86.704C247.166 88.24 244.99 89.008 242.75 89.008Z" fill="white"/>
</svg>
