<svg width="61" height="96" viewBox="0 0 61 96" fill="none" xmlns="http://www.w3.org/2000/svg">
<rect x="-371.5" y="-86.5" width="669" height="282" rx="1.5" stroke="white" stroke-opacity="0.1"/>
<path d="M-270 58V1.36H-267.12V58H-270ZM-264.24 58V1.36H-255.6V58H-264.24ZM-252.72 58V1.36H-249.84V58H-252.72ZM-246.96 58V1.36H-244.08V58H-246.96ZM-235.44 58V1.36H-226.8V58H-235.44ZM-253.488 66.352H-250.608V66.64C-250.736 66.768 -250.832 66.928 -250.896 67.12C-250.896 67.248 -250.896 67.536 -250.896 67.984V86.512H-240.24V88.624H-253.488V66.352ZM-199.875 58V1.36H-191.235V58H-199.875ZM-188.355 58V1.36H-185.475V58H-188.355ZM-182.595 58V1.36H-173.955V58H-182.595ZM-171.075 58V1.36H-168.195V58H-171.075ZM-159.555 58V1.36H-156.675V58H-159.555ZM-176.835 89.008C-179.395 89.008 -181.347 88.016 -182.691 86.032C-184.099 84.048 -184.803 81.232 -184.803 77.584C-184.803 74.064 -184.099 71.28 -182.691 69.232C-181.283 67.248 -179.331 66.256 -176.835 66.256C-174.339 66.256 -172.387 67.248 -170.979 69.232C-169.571 71.28 -168.867 74.064 -168.867 77.584C-168.867 81.232 -169.571 84.048 -170.979 86.032C-172.323 88.016 -174.275 89.008 -176.835 89.008ZM-176.835 86.8C-175.107 86.8 -173.795 86.032 -172.899 84.496C-171.939 82.896 -171.459 80.592 -171.459 77.584C-171.459 74.768 -171.939 72.528 -172.899 70.864C-173.859 69.264 -175.171 68.464 -176.835 68.464C-178.499 68.464 -179.811 69.264 -180.771 70.864C-181.731 72.528 -182.211 74.768 -182.211 77.584C-182.211 80.592 -181.763 82.896 -180.867 84.496C-179.907 86.032 -178.563 86.8 -176.835 86.8ZM-129.75 58V1.36H-121.11V58H-129.75ZM-118.23 58V1.36H-115.35V58H-118.23ZM-112.47 58V1.36H-109.59V58H-112.47ZM-100.95 58V1.36H-98.07V58H-100.95ZM-95.19 58V1.36H-86.55V58H-95.19ZM-103.158 82.096H-110.358L-112.566 88.624H-115.062L-106.902 65.968H-106.614L-98.358 88.624H-100.95L-103.158 82.096ZM-103.83 80.176L-106.71 71.728L-109.686 80.176H-103.83ZM-59.625 58V1.36H-56.745V58H-59.625ZM-53.865 58V1.36H-50.985V58H-53.865ZM-48.105 58V1.36H-39.465V58H-48.105ZM-30.825 58V1.36H-27.945V58H-30.825ZM-25.065 58V1.36H-16.425V58H-25.065ZM-43.593 66.352H-38.409C-36.553 66.352 -35.113 66.608 -34.089 67.12C-33.001 67.632 -32.073 68.4 -31.305 69.424C-29.833 71.344 -29.097 74.064 -29.097 77.584C-29.225 81.232 -30.057 83.984 -31.593 85.84C-33.129 87.76 -35.529 88.688 -38.793 88.624H-43.593V66.352ZM-38.985 86.704C-34.057 86.704 -31.593 83.728 -31.593 77.776C-31.593 74.768 -32.137 72.464 -33.225 70.864C-34.377 69.264 -36.169 68.464 -38.601 68.464H-41.193V86.704H-38.985ZM10.5 58V1.36H13.38V58H10.5ZM16.26 58V1.36H24.9V58H16.26ZM27.78 58V1.36H30.66V58H27.78ZM39.3 58V1.36H47.94V58H39.3ZM50.82 58V1.36H53.7V58H50.82ZM27.492 86.512H31.908V68.464H27.78V66.352H38.82V68.464H34.404V86.512H39.012V88.624H27.492V86.512ZM80.625 58V1.36H83.505V58H80.625ZM86.385 58V1.36H89.265V58H86.385ZM92.145 58V1.36H100.785V58H92.145ZM103.665 58V1.36H106.545V58H103.665ZM115.185 58V1.36H123.825V58H115.185ZM96.561 66.352H98.961L108.273 82.864V66.352H111.057V66.64C110.865 66.768 110.769 66.928 110.769 67.12C110.705 67.248 110.673 67.536 110.673 67.984V88.624H108.753L98.865 71.152V88.624H96.561V66.352ZM150.75 58V1.36H153.63V58H150.75ZM156.51 58V1.36H159.39V58H156.51ZM162.27 58V1.36H165.15V58H162.27ZM173.79 58V1.36H182.43V58H173.79ZM185.31 58V1.36H193.95V58H185.31ZM174.75 89.008C172.958 89.008 171.422 88.528 170.142 87.568C168.862 86.672 167.87 85.36 167.166 83.632C166.462 81.968 166.11 80.016 166.11 77.776C166.11 74.832 166.558 72.496 167.454 70.768C168.35 69.04 169.438 67.824 170.718 67.12C171.998 66.48 173.278 66.16 174.558 66.16C175.902 66.16 177.182 66.512 178.398 67.216C179.678 67.856 180.606 68.752 181.182 69.904L179.454 71.248L179.166 71.536L179.07 71.344C179.07 71.152 179.038 70.96 178.974 70.768C178.846 70.64 178.654 70.416 178.398 70.096C177.822 69.456 177.246 69.008 176.67 68.752C176.094 68.496 175.39 68.368 174.558 68.368C172.83 68.368 171.39 69.04 170.238 70.384C169.15 71.792 168.606 74.064 168.606 77.2C168.606 80.272 169.15 82.64 170.238 84.304C171.326 85.968 172.83 86.8 174.75 86.8C175.454 86.8 176.19 86.672 176.958 86.416C177.79 86.224 178.462 85.904 178.974 85.456V80.176H174.942V77.968H181.278V86.704C179.166 88.24 176.99 89.008 174.75 89.008Z" fill="white"/>
</svg>
