<svg width="61" height="96" viewBox="0 0 61 96" fill="white" xmlns="http://www.w3.org/2000/svg">
<rect x="-93.5" y="-86.5" width="669" height="282" rx="1.5" stroke="white" stroke-opacity="0.1"/>
<path d="M8 58V1.36H10.88V58H8ZM13.76 58V1.36H22.4V58H13.76ZM25.28 58V1.36H28.16V58H25.28ZM31.04 58V1.36H33.92V58H31.04ZM42.56 58V1.36H51.2V58H42.56ZM24.512 66.352H27.392V66.64C27.264 66.768 27.168 66.928 27.104 67.12C27.104 67.248 27.104 67.536 27.104 67.984V86.512H37.76V88.624H24.512V66.352ZM78.125 58V1.36H86.765V58H78.125ZM89.645 58V1.36H92.525V58H89.645ZM95.405 58V1.36H104.045V58H95.405ZM106.925 58V1.36H109.805V58H106.925ZM118.445 58V1.36H121.325V58H118.445ZM101.165 89.008C98.605 89.008 96.653 88.016 95.309 86.032C93.901 84.048 93.197 81.232 93.197 77.584C93.197 74.064 93.901 71.28 95.309 69.232C96.717 67.248 98.669 66.256 101.165 66.256C103.661 66.256 105.613 67.248 107.021 69.232C108.429 71.28 109.133 74.064 109.133 77.584C109.133 81.232 108.429 84.048 107.021 86.032C105.677 88.016 103.725 89.008 101.165 89.008ZM101.165 86.8C102.893 86.8 104.205 86.032 105.101 84.496C106.061 82.896 106.541 80.592 106.541 77.584C106.541 74.768 106.061 72.528 105.101 70.864C104.141 69.264 102.829 68.464 101.165 68.464C99.501 68.464 98.189 69.264 97.229 70.864C96.269 72.528 95.789 74.768 95.789 77.584C95.789 80.592 96.237 82.896 97.133 84.496C98.093 86.032 99.437 86.8 101.165 86.8ZM148.25 58V1.36H156.89V58H148.25ZM159.77 58V1.36H162.65V58H159.77ZM165.53 58V1.36H168.41V58H165.53ZM177.05 58V1.36H179.93V58H177.05ZM182.81 58V1.36H191.45V58H182.81ZM174.842 82.096H167.642L165.434 88.624H162.938L171.098 65.968H171.386L179.642 88.624H177.05L174.842 82.096ZM174.17 80.176L171.29 71.728L168.314 80.176H174.17ZM218.375 58V1.36H221.255V58H218.375ZM224.135 58V1.36H227.015V58H224.135ZM229.895 58V1.36H238.535V58H229.895ZM247.175 58V1.36H250.055V58H247.175ZM252.935 58V1.36H261.575V58H252.935ZM234.407 66.352H239.591C241.447 66.352 242.887 66.608 243.911 67.12C244.999 67.632 245.927 68.4 246.695 69.424C248.167 71.344 248.903 74.064 248.903 77.584C248.775 81.232 247.943 83.984 246.407 85.84C244.871 87.76 242.471 88.688 239.207 88.624H234.407V66.352ZM239.015 86.704C243.943 86.704 246.407 83.728 246.407 77.776C246.407 74.768 245.863 72.464 244.775 70.864C243.623 69.264 241.831 68.464 239.399 68.464H236.807V86.704H239.015ZM288.5 58V1.36H291.38V58H288.5ZM294.26 58V1.36H302.9V58H294.26ZM305.78 58V1.36H308.66V58H305.78ZM317.3 58V1.36H325.94V58H317.3ZM328.82 58V1.36H331.7V58H328.82ZM305.492 86.512H309.908V68.464H305.78V66.352H316.82V68.464H312.404V86.512H317.012V88.624H305.492V86.512ZM358.625 58V1.36H361.505V58H358.625ZM364.385 58V1.36H367.265V58H364.385ZM370.145 58V1.36H378.785V58H370.145ZM381.665 58V1.36H384.545V58H381.665ZM393.185 58V1.36H401.825V58H393.185ZM374.561 66.352H376.961L386.273 82.864V66.352H389.057V66.64C388.865 66.768 388.769 66.928 388.769 67.12C388.705 67.248 388.673 67.536 388.673 67.984V88.624H386.753L376.865 71.152V88.624H374.561V66.352ZM428.75 58V1.36H431.63V58H428.75ZM434.51 58V1.36H437.39V58H434.51ZM440.27 58V1.36H443.15V58H440.27ZM451.79 58V1.36H460.43V58H451.79ZM463.31 58V1.36H471.95V58H463.31ZM452.75 89.008C450.958 89.008 449.422 88.528 448.142 87.568C446.862 86.672 445.87 85.36 445.166 83.632C444.462 81.968 444.11 80.016 444.11 77.776C444.11 74.832 444.558 72.496 445.454 70.768C446.35 69.04 447.438 67.824 448.718 67.12C449.998 66.48 451.278 66.16 452.558 66.16C453.902 66.16 455.182 66.512 456.398 67.216C457.678 67.856 458.606 68.752 459.182 69.904L457.454 71.248L457.166 71.536L457.07 71.344C457.07 71.152 457.038 70.96 456.974 70.768C456.846 70.64 456.654 70.416 456.398 70.096C455.822 69.456 455.246 69.008 454.67 68.752C454.094 68.496 453.39 68.368 452.558 68.368C450.83 68.368 449.39 69.04 448.238 70.384C447.15 71.792 446.606 74.064 446.606 77.2C446.606 80.272 447.15 82.64 448.238 84.304C449.326 85.968 450.83 86.8 452.75 86.8C453.454 86.8 454.19 86.672 454.958 86.416C455.79 86.224 456.462 85.904 456.974 85.456V80.176H452.942V77.968H459.278V86.704C457.166 88.24 454.99 89.008 452.75 89.008Z" />
</svg>
