<svg width="61" height="96" viewBox="0 0 61 96" fill="none" xmlns="http://www.w3.org/2000/svg">
<rect x="-442.5" y="-86.5" width="669" height="282" rx="1.5" stroke="white" stroke-opacity="0.1"/>
<path d="M-341 58V1.36H-338.12V58H-341ZM-335.24 58V1.36H-326.6V58H-335.24ZM-323.72 58V1.36H-320.84V58H-323.72ZM-317.96 58V1.36H-315.08V58H-317.96ZM-306.44 58V1.36H-297.8V58H-306.44ZM-324.488 66.352H-321.608V66.64C-321.736 66.768 -321.832 66.928 -321.896 67.12C-321.896 67.248 -321.896 67.536 -321.896 67.984V86.512H-311.24V88.624H-324.488V66.352ZM-270.875 58V1.36H-262.235V58H-270.875ZM-259.355 58V1.36H-256.475V58H-259.355ZM-253.595 58V1.36H-244.955V58H-253.595ZM-242.075 58V1.36H-239.195V58H-242.075ZM-230.555 58V1.36H-227.675V58H-230.555ZM-247.835 89.008C-250.395 89.008 -252.347 88.016 -253.691 86.032C-255.099 84.048 -255.803 81.232 -255.803 77.584C-255.803 74.064 -255.099 71.28 -253.691 69.232C-252.283 67.248 -250.331 66.256 -247.835 66.256C-245.339 66.256 -243.387 67.248 -241.979 69.232C-240.571 71.28 -239.867 74.064 -239.867 77.584C-239.867 81.232 -240.571 84.048 -241.979 86.032C-243.323 88.016 -245.275 89.008 -247.835 89.008ZM-247.835 86.8C-246.107 86.8 -244.795 86.032 -243.899 84.496C-242.939 82.896 -242.459 80.592 -242.459 77.584C-242.459 74.768 -242.939 72.528 -243.899 70.864C-244.859 69.264 -246.171 68.464 -247.835 68.464C-249.499 68.464 -250.811 69.264 -251.771 70.864C-252.731 72.528 -253.211 74.768 -253.211 77.584C-253.211 80.592 -252.763 82.896 -251.867 84.496C-250.907 86.032 -249.563 86.8 -247.835 86.8ZM-200.75 58V1.36H-192.11V58H-200.75ZM-189.23 58V1.36H-186.35V58H-189.23ZM-183.47 58V1.36H-180.59V58H-183.47ZM-171.95 58V1.36H-169.07V58H-171.95ZM-166.19 58V1.36H-157.55V58H-166.19ZM-174.158 82.096H-181.358L-183.566 88.624H-186.062L-177.902 65.968H-177.614L-169.358 88.624H-171.95L-174.158 82.096ZM-174.83 80.176L-177.71 71.728L-180.686 80.176H-174.83ZM-130.625 58V1.36H-127.745V58H-130.625ZM-124.865 58V1.36H-121.985V58H-124.865ZM-119.105 58V1.36H-110.465V58H-119.105ZM-101.825 58V1.36H-98.945V58H-101.825ZM-96.065 58V1.36H-87.425V58H-96.065ZM-114.593 66.352H-109.409C-107.553 66.352 -106.113 66.608 -105.089 67.12C-104.001 67.632 -103.073 68.4 -102.305 69.424C-100.833 71.344 -100.097 74.064 -100.097 77.584C-100.225 81.232 -101.057 83.984 -102.593 85.84C-104.129 87.76 -106.529 88.688 -109.793 88.624H-114.593V66.352ZM-109.985 86.704C-105.057 86.704 -102.593 83.728 -102.593 77.776C-102.593 74.768 -103.137 72.464 -104.225 70.864C-105.377 69.264 -107.169 68.464 -109.601 68.464H-112.193V86.704H-109.985ZM-60.5 58V1.36H-57.62V58H-60.5ZM-54.74 58V1.36H-46.1V58H-54.74ZM-43.22 58V1.36H-40.34V58H-43.22ZM-31.7 58V1.36H-23.06V58H-31.7ZM-20.18 58V1.36H-17.3V58H-20.18ZM-43.508 86.512H-39.092V68.464H-43.22V66.352H-32.18V68.464H-36.596V86.512H-31.988V88.624H-43.508V86.512ZM9.625 58V1.36H12.505V58H9.625ZM15.385 58V1.36H18.265V58H15.385ZM21.145 58V1.36H29.785V58H21.145ZM32.665 58V1.36H35.545V58H32.665ZM44.185 58V1.36H52.825V58H44.185ZM25.561 66.352H27.961L37.273 82.864V66.352H40.057V66.64C39.865 66.768 39.769 66.928 39.769 67.12C39.705 67.248 39.673 67.536 39.673 67.984V88.624H37.753L27.865 71.152V88.624H25.561V66.352ZM79.75 58V1.36H82.63V58H79.75ZM85.51 58V1.36H88.39V58H85.51ZM91.27 58V1.36H94.15V58H91.27ZM102.79 58V1.36H111.43V58H102.79ZM114.31 58V1.36H122.95V58H114.31ZM103.75 89.008C101.958 89.008 100.422 88.528 99.142 87.568C97.862 86.672 96.87 85.36 96.166 83.632C95.462 81.968 95.11 80.016 95.11 77.776C95.11 74.832 95.558 72.496 96.454 70.768C97.35 69.04 98.438 67.824 99.718 67.12C100.998 66.48 102.278 66.16 103.558 66.16C104.902 66.16 106.182 66.512 107.398 67.216C108.678 67.856 109.606 68.752 110.182 69.904L108.454 71.248L108.166 71.536L108.07 71.344C108.07 71.152 108.038 70.96 107.974 70.768C107.846 70.64 107.654 70.416 107.398 70.096C106.822 69.456 106.246 69.008 105.67 68.752C105.094 68.496 104.39 68.368 103.558 68.368C101.83 68.368 100.39 69.04 99.238 70.384C98.15 71.792 97.606 74.064 97.606 77.2C97.606 80.272 98.15 82.64 99.238 84.304C100.326 85.968 101.83 86.8 103.75 86.8C104.454 86.8 105.19 86.672 105.958 86.416C106.79 86.224 107.462 85.904 107.974 85.456V80.176H103.942V77.968H110.278V86.704C108.166 88.24 105.99 89.008 103.75 89.008Z" fill="white"/>
</svg>
