<svg width="61" height="96" viewBox="0 0 61 96" fill="none" xmlns="http://www.w3.org/2000/svg">
<rect x="-513.5" y="-86.5" width="669" height="282" rx="1.5" stroke="white" stroke-opacity="0.1"/>
<path d="M-412 58V1.36H-409.12V58H-412ZM-406.24 58V1.36H-397.6V58H-406.24ZM-394.72 58V1.36H-391.84V58H-394.72ZM-388.96 58V1.36H-386.08V58H-388.96ZM-377.44 58V1.36H-368.8V58H-377.44ZM-395.488 66.352H-392.608V66.64C-392.736 66.768 -392.832 66.928 -392.896 67.12C-392.896 67.248 -392.896 67.536 -392.896 67.984V86.512H-382.24V88.624H-395.488V66.352ZM-341.875 58V1.36H-333.235V58H-341.875ZM-330.355 58V1.36H-327.475V58H-330.355ZM-324.595 58V1.36H-315.955V58H-324.595ZM-313.075 58V1.36H-310.195V58H-313.075ZM-301.555 58V1.36H-298.675V58H-301.555ZM-318.835 89.008C-321.395 89.008 -323.347 88.016 -324.691 86.032C-326.099 84.048 -326.803 81.232 -326.803 77.584C-326.803 74.064 -326.099 71.28 -324.691 69.232C-323.283 67.248 -321.331 66.256 -318.835 66.256C-316.339 66.256 -314.387 67.248 -312.979 69.232C-311.571 71.28 -310.867 74.064 -310.867 77.584C-310.867 81.232 -311.571 84.048 -312.979 86.032C-314.323 88.016 -316.275 89.008 -318.835 89.008ZM-318.835 86.8C-317.107 86.8 -315.795 86.032 -314.899 84.496C-313.939 82.896 -313.459 80.592 -313.459 77.584C-313.459 74.768 -313.939 72.528 -314.899 70.864C-315.859 69.264 -317.171 68.464 -318.835 68.464C-320.499 68.464 -321.811 69.264 -322.771 70.864C-323.731 72.528 -324.211 74.768 -324.211 77.584C-324.211 80.592 -323.763 82.896 -322.867 84.496C-321.907 86.032 -320.563 86.8 -318.835 86.8ZM-271.75 58V1.36H-263.11V58H-271.75ZM-260.23 58V1.36H-257.35V58H-260.23ZM-254.47 58V1.36H-251.59V58H-254.47ZM-242.95 58V1.36H-240.07V58H-242.95ZM-237.19 58V1.36H-228.55V58H-237.19ZM-245.158 82.096H-252.358L-254.566 88.624H-257.062L-248.902 65.968H-248.614L-240.358 88.624H-242.95L-245.158 82.096ZM-245.83 80.176L-248.71 71.728L-251.686 80.176H-245.83ZM-201.625 58V1.36H-198.745V58H-201.625ZM-195.865 58V1.36H-192.985V58H-195.865ZM-190.105 58V1.36H-181.465V58H-190.105ZM-172.825 58V1.36H-169.945V58H-172.825ZM-167.065 58V1.36H-158.425V58H-167.065ZM-185.593 66.352H-180.409C-178.553 66.352 -177.113 66.608 -176.089 67.12C-175.001 67.632 -174.073 68.4 -173.305 69.424C-171.833 71.344 -171.097 74.064 -171.097 77.584C-171.225 81.232 -172.057 83.984 -173.593 85.84C-175.129 87.76 -177.529 88.688 -180.793 88.624H-185.593V66.352ZM-180.985 86.704C-176.057 86.704 -173.593 83.728 -173.593 77.776C-173.593 74.768 -174.137 72.464 -175.225 70.864C-176.377 69.264 -178.169 68.464 -180.601 68.464H-183.193V86.704H-180.985ZM-131.5 58V1.36H-128.62V58H-131.5ZM-125.74 58V1.36H-117.1V58H-125.74ZM-114.22 58V1.36H-111.34V58H-114.22ZM-102.7 58V1.36H-94.06V58H-102.7ZM-91.18 58V1.36H-88.3V58H-91.18ZM-114.508 86.512H-110.092V68.464H-114.22V66.352H-103.18V68.464H-107.596V86.512H-102.988V88.624H-114.508V86.512ZM-61.375 58V1.36H-58.495V58H-61.375ZM-55.615 58V1.36H-52.735V58H-55.615ZM-49.855 58V1.36H-41.215V58H-49.855ZM-38.335 58V1.36H-35.455V58H-38.335ZM-26.815 58V1.36H-18.175V58H-26.815ZM-45.439 66.352H-43.039L-33.727 82.864V66.352H-30.943V66.64C-31.135 66.768 -31.231 66.928 -31.231 67.12C-31.295 67.248 -31.327 67.536 -31.327 67.984V88.624H-33.247L-43.135 71.152V88.624H-45.439V66.352ZM8.75 58V1.36H11.63V58H8.75ZM14.51 58V1.36H17.39V58H14.51ZM20.27 58V1.36H23.15V58H20.27ZM31.79 58V1.36H40.43V58H31.79ZM43.31 58V1.36H51.95V58H43.31ZM32.75 89.008C30.958 89.008 29.422 88.528 28.142 87.568C26.862 86.672 25.87 85.36 25.166 83.632C24.462 81.968 24.11 80.016 24.11 77.776C24.11 74.832 24.558 72.496 25.454 70.768C26.35 69.04 27.438 67.824 28.718 67.12C29.998 66.48 31.278 66.16 32.558 66.16C33.902 66.16 35.182 66.512 36.398 67.216C37.678 67.856 38.606 68.752 39.182 69.904L37.454 71.248L37.166 71.536L37.07 71.344C37.07 71.152 37.038 70.96 36.974 70.768C36.846 70.64 36.654 70.416 36.398 70.096C35.822 69.456 35.246 69.008 34.67 68.752C34.094 68.496 33.39 68.368 32.558 68.368C30.83 68.368 29.39 69.04 28.238 70.384C27.15 71.792 26.606 74.064 26.606 77.2C26.606 80.272 27.15 82.64 28.238 84.304C29.326 85.968 30.83 86.8 32.75 86.8C33.454 86.8 34.19 86.672 34.958 86.416C35.79 86.224 36.462 85.904 36.974 85.456V80.176H32.942V77.968H39.278V86.704C37.166 88.24 34.99 89.008 32.75 89.008Z" fill="white"/>
</svg>
