<svg width="61" height="96" viewBox="0 0 61 96" fill="none" xmlns="http://www.w3.org/2000/svg">
<rect x="-232.5" y="-86.5" width="669" height="282" rx="1.5" stroke="white" stroke-opacity="0.1"/>
<path d="M-131 58V1.36H-128.12V58H-131ZM-125.24 58V1.36H-116.6V58H-125.24ZM-113.72 58V1.36H-110.84V58H-113.72ZM-107.96 58V1.36H-105.08V58H-107.96ZM-96.44 58V1.36H-87.8V58H-96.44ZM-114.488 66.352H-111.608V66.64C-111.736 66.768 -111.832 66.928 -111.896 67.12C-111.896 67.248 -111.896 67.536 -111.896 67.984V86.512H-101.24V88.624H-114.488V66.352ZM-60.875 58V1.36H-52.235V58H-60.875ZM-49.355 58V1.36H-46.475V58H-49.355ZM-43.595 58V1.36H-34.955V58H-43.595ZM-32.075 58V1.36H-29.195V58H-32.075ZM-20.555 58V1.36H-17.675V58H-20.555ZM-37.835 89.008C-40.395 89.008 -42.347 88.016 -43.691 86.032C-45.099 84.048 -45.803 81.232 -45.803 77.584C-45.803 74.064 -45.099 71.28 -43.691 69.232C-42.283 67.248 -40.331 66.256 -37.835 66.256C-35.339 66.256 -33.387 67.248 -31.979 69.232C-30.571 71.28 -29.867 74.064 -29.867 77.584C-29.867 81.232 -30.571 84.048 -31.979 86.032C-33.323 88.016 -35.275 89.008 -37.835 89.008ZM-37.835 86.8C-36.107 86.8 -34.795 86.032 -33.899 84.496C-32.939 82.896 -32.459 80.592 -32.459 77.584C-32.459 74.768 -32.939 72.528 -33.899 70.864C-34.859 69.264 -36.171 68.464 -37.835 68.464C-39.499 68.464 -40.811 69.264 -41.771 70.864C-42.731 72.528 -43.211 74.768 -43.211 77.584C-43.211 80.592 -42.763 82.896 -41.867 84.496C-40.907 86.032 -39.563 86.8 -37.835 86.8ZM9.25 58V1.36H17.89V58H9.25ZM20.77 58V1.36H23.65V58H20.77ZM26.53 58V1.36H29.41V58H26.53ZM38.05 58V1.36H40.93V58H38.05ZM43.81 58V1.36H52.45V58H43.81ZM35.842 82.096H28.642L26.434 88.624H23.938L32.098 65.968H32.386L40.642 88.624H38.05L35.842 82.096ZM35.17 80.176L32.29 71.728L29.314 80.176H35.17ZM79.375 58V1.36H82.255V58H79.375ZM85.135 58V1.36H88.015V58H85.135ZM90.895 58V1.36H99.535V58H90.895ZM108.175 58V1.36H111.055V58H108.175ZM113.935 58V1.36H122.575V58H113.935ZM95.407 66.352H100.591C102.447 66.352 103.887 66.608 104.911 67.12C105.999 67.632 106.927 68.4 107.695 69.424C109.167 71.344 109.903 74.064 109.903 77.584C109.775 81.232 108.943 83.984 107.407 85.84C105.871 87.76 103.471 88.688 100.207 88.624H95.407V66.352ZM100.015 86.704C104.943 86.704 107.407 83.728 107.407 77.776C107.407 74.768 106.863 72.464 105.775 70.864C104.623 69.264 102.831 68.464 100.399 68.464H97.807V86.704H100.015ZM149.5 58V1.36H152.38V58H149.5ZM155.26 58V1.36H163.9V58H155.26ZM166.78 58V1.36H169.66V58H166.78ZM178.3 58V1.36H186.94V58H178.3ZM189.82 58V1.36H192.7V58H189.82ZM166.492 86.512H170.908V68.464H166.78V66.352H177.82V68.464H173.404V86.512H178.012V88.624H166.492V86.512ZM219.625 58V1.36H222.505V58H219.625ZM225.385 58V1.36H228.265V58H225.385ZM231.145 58V1.36H239.785V58H231.145ZM242.665 58V1.36H245.545V58H242.665ZM254.185 58V1.36H262.825V58H254.185ZM235.561 66.352H237.961L247.273 82.864V66.352H250.057V66.64C249.865 66.768 249.769 66.928 249.769 67.12C249.705 67.248 249.673 67.536 249.673 67.984V88.624H247.753L237.865 71.152V88.624H235.561V66.352ZM289.75 58V1.36H292.63V58H289.75ZM295.51 58V1.36H298.39V58H295.51ZM301.27 58V1.36H304.15V58H301.27ZM312.79 58V1.36H321.43V58H312.79ZM324.31 58V1.36H332.95V58H324.31ZM313.75 89.008C311.958 89.008 310.422 88.528 309.142 87.568C307.862 86.672 306.87 85.36 306.166 83.632C305.462 81.968 305.11 80.016 305.11 77.776C305.11 74.832 305.558 72.496 306.454 70.768C307.35 69.04 308.438 67.824 309.718 67.12C310.998 66.48 312.278 66.16 313.558 66.16C314.902 66.16 316.182 66.512 317.398 67.216C318.678 67.856 319.606 68.752 320.182 69.904L318.454 71.248L318.166 71.536L318.07 71.344C318.07 71.152 318.038 70.96 317.974 70.768C317.846 70.64 317.654 70.416 317.398 70.096C316.822 69.456 316.246 69.008 315.67 68.752C315.094 68.496 314.39 68.368 313.558 68.368C311.83 68.368 310.39 69.04 309.238 70.384C308.15 71.792 307.606 74.064 307.606 77.2C307.606 80.272 308.15 82.64 309.238 84.304C310.326 85.968 311.83 86.8 313.75 86.8C314.454 86.8 315.19 86.672 315.958 86.416C316.79 86.224 317.462 85.904 317.974 85.456V80.176H313.942V77.968H320.278V86.704C318.166 88.24 315.99 89.008 313.75 89.008Z" fill="white"/>
</svg>
