<svg width="61" height="96" viewBox="0 0 61 96" fill="none" xmlns="http://www.w3.org/2000/svg">
<rect x="-161.5" y="-86.5" width="669" height="282" rx="1.5" stroke="white" stroke-opacity="0.1"/>
<path d="M-60 58V1.36H-57.12V58H-60ZM-54.24 58V1.36H-45.6V58H-54.24ZM-42.72 58V1.36H-39.84V58H-42.72ZM-36.96 58V1.36H-34.08V58H-36.96ZM-25.44 58V1.36H-16.8V58H-25.44ZM-43.488 66.352H-40.608V66.64C-40.736 66.768 -40.832 66.928 -40.896 67.12C-40.896 67.248 -40.896 67.536 -40.896 67.984V86.512H-30.24V88.624H-43.488V66.352ZM10.125 58V1.36H18.765V58H10.125ZM21.645 58V1.36H24.525V58H21.645ZM27.405 58V1.36H36.045V58H27.405ZM38.925 58V1.36H41.805V58H38.925ZM50.445 58V1.36H53.325V58H50.445ZM33.165 89.008C30.605 89.008 28.653 88.016 27.309 86.032C25.901 84.048 25.197 81.232 25.197 77.584C25.197 74.064 25.901 71.28 27.309 69.232C28.717 67.248 30.669 66.256 33.165 66.256C35.661 66.256 37.613 67.248 39.021 69.232C40.429 71.28 41.133 74.064 41.133 77.584C41.133 81.232 40.429 84.048 39.021 86.032C37.677 88.016 35.725 89.008 33.165 89.008ZM33.165 86.8C34.893 86.8 36.205 86.032 37.101 84.496C38.061 82.896 38.541 80.592 38.541 77.584C38.541 74.768 38.061 72.528 37.101 70.864C36.141 69.264 34.829 68.464 33.165 68.464C31.501 68.464 30.189 69.264 29.229 70.864C28.269 72.528 27.789 74.768 27.789 77.584C27.789 80.592 28.237 82.896 29.133 84.496C30.093 86.032 31.437 86.8 33.165 86.8ZM80.25 58V1.36H88.89V58H80.25ZM91.77 58V1.36H94.65V58H91.77ZM97.53 58V1.36H100.41V58H97.53ZM109.05 58V1.36H111.93V58H109.05ZM114.81 58V1.36H123.45V58H114.81ZM106.842 82.096H99.642L97.434 88.624H94.938L103.098 65.968H103.386L111.642 88.624H109.05L106.842 82.096ZM106.17 80.176L103.29 71.728L100.314 80.176H106.17ZM150.375 58V1.36H153.255V58H150.375ZM156.135 58V1.36H159.015V58H156.135ZM161.895 58V1.36H170.535V58H161.895ZM179.175 58V1.36H182.055V58H179.175ZM184.935 58V1.36H193.575V58H184.935ZM166.407 66.352H171.591C173.447 66.352 174.887 66.608 175.911 67.12C176.999 67.632 177.927 68.4 178.695 69.424C180.167 71.344 180.903 74.064 180.903 77.584C180.775 81.232 179.943 83.984 178.407 85.84C176.871 87.76 174.471 88.688 171.207 88.624H166.407V66.352ZM171.015 86.704C175.943 86.704 178.407 83.728 178.407 77.776C178.407 74.768 177.863 72.464 176.775 70.864C175.623 69.264 173.831 68.464 171.399 68.464H168.807V86.704H171.015ZM220.5 58V1.36H223.38V58H220.5ZM226.26 58V1.36H234.9V58H226.26ZM237.78 58V1.36H240.66V58H237.78ZM249.3 58V1.36H257.94V58H249.3ZM260.82 58V1.36H263.7V58H260.82ZM237.492 86.512H241.908V68.464H237.78V66.352H248.82V68.464H244.404V86.512H249.012V88.624H237.492V86.512ZM290.625 58V1.36H293.505V58H290.625ZM296.385 58V1.36H299.265V58H296.385ZM302.145 58V1.36H310.785V58H302.145ZM313.665 58V1.36H316.545V58H313.665ZM325.185 58V1.36H333.825V58H325.185ZM306.561 66.352H308.961L318.273 82.864V66.352H321.057V66.64C320.865 66.768 320.769 66.928 320.769 67.12C320.705 67.248 320.673 67.536 320.673 67.984V88.624H318.753L308.865 71.152V88.624H306.561V66.352ZM360.75 58V1.36H363.63V58H360.75ZM366.51 58V1.36H369.39V58H366.51ZM372.27 58V1.36H375.15V58H372.27ZM383.79 58V1.36H392.43V58H383.79ZM395.31 58V1.36H403.95V58H395.31ZM384.75 89.008C382.958 89.008 381.422 88.528 380.142 87.568C378.862 86.672 377.87 85.36 377.166 83.632C376.462 81.968 376.11 80.016 376.11 77.776C376.11 74.832 376.558 72.496 377.454 70.768C378.35 69.04 379.438 67.824 380.718 67.12C381.998 66.48 383.278 66.16 384.558 66.16C385.902 66.16 387.182 66.512 388.398 67.216C389.678 67.856 390.606 68.752 391.182 69.904L389.454 71.248L389.166 71.536L389.07 71.344C389.07 71.152 389.038 70.96 388.974 70.768C388.846 70.64 388.654 70.416 388.398 70.096C387.822 69.456 387.246 69.008 386.67 68.752C386.094 68.496 385.39 68.368 384.558 68.368C382.83 68.368 381.39 69.04 380.238 70.384C379.15 71.792 378.606 74.064 378.606 77.2C378.606 80.272 379.15 82.64 380.238 84.304C381.326 85.968 382.83 86.8 384.75 86.8C385.454 86.8 386.19 86.672 386.958 86.416C387.79 86.224 388.462 85.904 388.974 85.456V80.176H384.942V77.968H391.278V86.704C389.166 88.24 386.99 89.008 384.75 89.008Z" fill="white"/>
</svg>
